<svg width="70" height="70" viewBox="0 0 70 70" fill="none" xmlns="http://www.w3.org/2000/svg">
<circle cx="35" cy="35" r="35" fill="white"/>
<g clip-path="url(#clip0)">
<path d="M48.8926 20.0732L45.718 21.5182C45.5147 21.612 45.3271 21.7402 45.1676 21.8997L39.9945 27.076L22.1795 24.9398C21.8573 24.9023 21.5321 25.0117 21.3037 25.2432L20.3123 26.2346C19.7868 26.7601 19.9495 27.6483 20.6282 27.9517L33.3952 33.6753L29.7296 37.3409H23.3273C23.0458 37.3409 22.7769 37.4535 22.5767 37.6505L22.0419 38.1884C21.5102 38.7201 21.6853 39.6177 22.3734 39.9118L27.7748 42.2262L30.0893 47.6276C30.3833 48.3157 31.284 48.4909 31.8126 47.9592L32.3505 47.4212C32.5507 47.221 32.6602 46.9521 32.6602 46.6706V40.2683L36.3258 36.6027L42.0493 49.3729C42.3527 50.0516 43.2409 50.2142 43.7664 49.6888L44.7578 48.6973C44.9893 48.4659 45.0987 48.1437 45.0612 47.8216L42.9219 30.0066L48.0981 24.8304C48.2577 24.6708 48.3859 24.4863 48.4797 24.2799L49.9247 21.1053C50.2281 20.4516 49.5525 19.7729 48.8926 20.0732Z" fill="#2F343A"/>
</g>
<defs>
<clipPath id="clip0">
<rect width="30" height="30" fill="white" transform="translate(20 20)"/>
</clipPath>
</defs>
</svg>
